<svg xmlns="http://www.w3.org/2000/svg" width="46" height="55" viewBox="0 0 46 55" fill="none"><path d="M17.6506 10.6789L19.2378 15.0591C21.0009 19.9206 24.8533 23.7489 29.7454 25.501L34.1532 27.0782C34.5505 27.2216 34.5505 27.7814 34.1532 27.9229L29.7454 29.5001C24.8533 31.2522 21.0009 35.0805 19.2378 39.942L17.6506 44.3222C17.5063 44.7171 16.9429 44.7171 16.8006 44.3222L15.2134 39.942C13.4503 35.0805 9.59789 31.2522 4.7058 29.5001L0.297973 27.9229C-0.0993243 27.7795 -0.0993243 27.2197 0.297973 27.0782L4.7058 25.501C9.59789 23.7489 13.4503 19.9206 15.2134 15.0591L16.8006 10.6789C16.9429 10.2821 17.5063 10.2821 17.6506 10.6789Z" fill="url(#paint0_linear_10_44)"/><path d="M37.4917 0.151737L38.2962 2.36936C39.1896 4.83054 41.1405 6.76924 43.6172 7.65707L45.8488 8.45651C46.0504 8.52919 46.0504 8.81204 45.8488 8.88472L43.6172 9.68416C41.1405 10.572 39.1896 12.5107 38.2962 14.9719L37.4917 17.1895C37.4186 17.3898 37.1339 17.3898 37.0608 17.1895L36.2563 14.9719C35.3629 12.5107 33.412 10.572 30.9353 9.68416L28.7037 8.88472C28.5021 8.81204 28.5021 8.52919 28.7037 8.45651L30.9353 7.65707C33.412 6.76924 35.3629 4.83054 36.2563 2.36936L37.0608 0.151737C37.1339 -0.050579 37.4206 -0.050579 37.4917 0.151737Z" fill="url(#paint1_linear_10_44)"/><path d="M37.4917 37.812L38.2962 40.0296C39.1896 42.4908 41.1405 44.4295 43.6172 45.3173L45.8488 46.1168C46.0504 46.1894 46.0504 46.4723 45.8488 46.545L43.6172 47.3444C41.1405 48.2322 39.1896 50.1709 38.2962 52.6321L37.4917 54.8497C37.4186 55.0501 37.1339 55.0501 37.0608 54.8497L36.2563 52.6321C35.3629 50.1709 33.412 48.2322 30.9353 47.3444L28.7037 46.545C28.5021 46.4723 28.5021 46.1894 28.7037 46.1168L30.9353 45.3173C33.412 44.4295 35.3629 42.4908 36.2563 40.0296L37.0608 37.812C37.1339 37.6116 37.4206 37.6116 37.4917 37.812Z" fill="url(#paint2_linear_10_44)"/><defs><linearGradient id="paint0_linear_10_44" x1="43.125" y1="37.8125" x2="-25.349" y2="4.40549" gradientUnits="userSpaceOnUse"><stop stop-color="#06802F"/><stop offset="0.910751" stop-color="#5DEFA4"/></linearGradient><linearGradient id="paint1_linear_10_44" x1="43.125" y1="37.8125" x2="-25.349" y2="4.40549" gradientUnits="userSpaceOnUse"><stop stop-color="#06802F"/><stop offset="0.910751" stop-color="#5DEFA4"/></linearGradient><linearGradient id="paint2_linear_10_44" x1="43.125" y1="37.8125" x2="-25.349" y2="4.40549" gradientUnits="userSpaceOnUse"><stop stop-color="#06802F"/><stop offset="0.910751" stop-color="#5DEFA4"/></linearGradient></defs></svg>