<svg xmlns="http://www.w3.org/2000/svg" width="25" height="25" viewBox="0 0 25 25" fill="none"><path fill-rule="evenodd" clip-rule="evenodd" d="M19.2313 1.8337C19.1537 1.49228 18.8501 1.25 18.5 1.25C18.1499 1.25 17.8463 1.49228 17.7687 1.8337L17.3537 3.6586C17.1618 4.50268 16.5027 5.16178 15.6586 5.3537L13.8337 5.76867C13.4923 5.8463 13.25 6.14986 13.25 6.5C13.25 6.85014 13.4923 7.1537 13.8337 7.23132L15.6586 7.6463C16.5027 7.83823 17.1618 8.49733 17.3537 9.34141L17.7687 11.1663C17.8463 11.5077 18.1499 11.75 18.5 11.75C18.8501 11.75 19.1537 11.5077 19.2313 11.1663L19.6463 9.34141C19.8382 8.49733 20.4973 7.83823 21.3414 7.6463L23.1663 7.23132C23.5077 7.1537 23.75 6.85014 23.75 6.5C23.75 6.14986 23.5077 5.8463 23.1663 5.76867L21.3414 5.3537C20.4973 5.16178 19.8382 4.50268 19.6463 3.6586L19.2313 1.8337Z" fill="url(#paint0_linear_1_951)"/><path d="M8.75 6.5C9.16422 6.5 9.5 6.83578 9.5 7.25V23C9.5 23.4142 9.16422 23.75 8.75 23.75C8.33578 23.75 8 23.4142 8 23V7.25C8 6.83578 8.33578 6.5 8.75 6.5Z" fill="url(#paint1_linear_1_951)"/><path d="M2.75 9.125C2.75 8.71078 2.41421 8.375 2 8.375C1.58579 8.375 1.25 8.71078 1.25 9.125V21.125C1.25 21.5392 1.58579 21.875 2 21.875C2.41421 21.875 2.75 21.5392 2.75 21.125V9.125Z" fill="url(#paint2_linear_1_951)"/><path d="M6.125 10.625C6.125 10.2108 5.78922 9.875 5.375 9.875C4.96078 9.875 4.625 10.2108 4.625 10.625V19.625C4.625 20.0392 4.96078 20.375 5.375 20.375C5.78922 20.375 6.125 20.0392 6.125 19.625V10.625Z" fill="url(#paint3_linear_1_951)"/><path d="M12.875 9.5C12.875 9.08578 12.5392 8.75 12.125 8.75C11.7108 8.75 11.375 9.08578 11.375 9.5V20.75C11.375 21.1642 11.7108 21.5 12.125 21.5C12.5392 21.5 12.875 21.1642 12.875 20.75V9.5Z" fill="url(#paint4_linear_1_951)"/><path d="M15.5 11.375C15.9142 11.375 16.25 11.7108 16.25 12.125V18.125C16.25 18.5392 15.9142 18.875 15.5 18.875C15.0858 18.875 14.75 18.5392 14.75 18.125V12.125C14.75 11.7108 15.0858 11.375 15.5 11.375Z" fill="url(#paint5_linear_1_951)"/><defs><linearGradient id="paint0_linear_1_951" x1="29.9915" y1="28.2961" x2="10.0344" y2="4.94862" gradientUnits="userSpaceOnUse"><stop offset="0.00265844" stop-color="#1DFF9A"/><stop offset="1" stop-color="#06802F"/></linearGradient><linearGradient id="paint1_linear_1_951" x1="29.9915" y1="28.2961" x2="10.0344" y2="4.94863" gradientUnits="userSpaceOnUse"><stop offset="0.00265844" stop-color="#1DFF9A"/><stop offset="1" stop-color="#06802F"/></linearGradient><linearGradient id="paint2_linear_1_951" x1="29.9915" y1="28.2961" x2="10.0344" y2="4.94862" gradientUnits="userSpaceOnUse"><stop offset="0.00265844" stop-color="#1DFF9A"/><stop offset="1" stop-color="#06802F"/></linearGradient><linearGradient id="paint3_linear_1_951" x1="29.9915" y1="28.2961" x2="10.0344" y2="4.94863" gradientUnits="userSpaceOnUse"><stop offset="0.00265844" stop-color="#1DFF9A"/><stop offset="1" stop-color="#06802F"/></linearGradient><linearGradient id="paint4_linear_1_951" x1="29.9915" y1="28.2961" x2="10.0344" y2="4.94862" gradientUnits="userSpaceOnUse"><stop offset="0.00265844" stop-color="#1DFF9A"/><stop offset="1" stop-color="#06802F"/></linearGradient><linearGradient id="paint5_linear_1_951" x1="29.9915" y1="28.2961" x2="10.0344" y2="4.94863" gradientUnits="userSpaceOnUse"><stop offset="0.00265844" stop-color="#1DFF9A"/><stop offset="1" stop-color="#06802F"/></linearGradient></defs></svg>